<svg xmlns="http://www.w3.org/2000/svg" width="143" height="33" viewBox="0 0 143 33" fill="none">
    <g clip-path="url(#a)" fill="#1C1E1E">
        <path d="M40.012 8.318h2.25v14.514h7.22v1.863h-9.509V8.318zM54.02 24.696h-2.25V8.317h2.25v16.377m3.726-16.376h9.702v1.863h-7.45v5.665h6.519v1.824h-6.52v7.025h-2.25zm11.954 0h9.702v1.863H71.95v5.2h6.52v1.824h-6.52v5.627h7.45v1.863h-9.7zm11.952 16.378V8.317h5.123c4.579 0 5.937 2.173 5.937 5.278 0 3.648-2.25 5.821-6.209 5.821h-2.6v5.317h-2.25zm4.812-7.141c2.678 0 3.959-1.475 3.959-3.881s-1.087-3.532-3.57-3.532h-2.95v7.373h2.562v.039zm7.762-.815c0-5.007 2.406-8.655 7.373-8.655s6.908 3.725 6.908 8.111c0 4.619-2.018 8.732-7.295 8.732s-6.986-3.997-6.986-8.189m12.069-.466c0-3.959-1.436-6.325-4.735-6.325-3.066 0-5.046 2.211-5.046 6.597s1.863 6.481 4.852 6.481c2.988 0 4.929-2.212 4.929-6.752zm11.061-7.955h2.289l3.959 13.777h.039l3.259-13.777h2.251l-4.23 16.416h-2.678l-3.027-10.051h-.038l-2.911 10.051h-2.522l-4.463-16.416h2.329l3.57 13.816.039.038 3.066-10.633zm13.971 16.378V8.317h5.238c4.541 0 5.822 1.902 5.822 4.812 0 2.329-1.125 3.997-3.182 4.812l3.725 6.791h-2.445l-3.298-6.287c-.35.039-.738.039-1.165.039h-2.406v6.209h-2.289zm4.811-8.034c2.601 0 3.92-1.241 3.92-3.454s-1.087-3.065-3.532-3.065h-2.911v6.52zm-122.71-.892c-.039.038-.039.116-.039.194q.058.116.117.116l1.979.543-1.32 3.765 4.54-5.162c.04-.038.04-.116.04-.194s-.079-.117-.117-.117l-1.863-.504 1.048-4.23zM0 7.387s10.4 0 9.896.349c-14.398 10.246-.31 20.957-.893 20.957-.815 0-11.72-6.676-6.868-18.59C2.795 8.435 0 7.388 0 7.388m31.085-1.67s-5.394 8.887-5.433 8.266C24.41-3.673 7.917 2.769 8.227 2.264c.427-.698 11.798-6.52 19.443 3.803 1.087 1.475 3.416-.35 3.416-.35M18.706 33s-5.899-8.538-5.317-8.344c16.61 6.054 17.425-11.642 17.774-11.176.465.698 1.125 13.466-11.41 16.222C17.97 30.09 18.707 33 18.707 33" />
    </g>
    <defs>
        <clipPath id="a">
            <path fill="#fff" d="M0 0h142.93v33H0z"/>
        </clipPath>
    </defs>
</svg>
